<svg xmlns="http://www.w3.org/2000/svg" version="1.1" viewBox="0 0 513.5 172.2" width="513.5" height="172.2">
  <path fill="#4E2680" d="M251.2,146h-36.7c-10.2,0-18.6-3.6-25.5-10.5-6.7-6.9-10-15.7-10-26.2s3.3-19.3,10-26.2c6.9-6.9,15.2-10.5,25.5-10.5s19.1,3.6,26,10.5c7.1,6.9,10.7,15.7,10.7,26.2v36.7h0ZM292.3,169.8v-23.1c-2.1.2-4.3.5-6,.5-6.4,0-8.8-3.8-8.8-14.1V46.7h-28.6v20c-4.5-11.4-19.1-20-38.4-20s-31.2,6-42.9,18.1c-11.4,11.9-17.1,26.7-17.1,44.5s5.7,32.6,17.1,44.8c11.7,12.1,26,18.1,42.9,18.1s32.9-6.2,41.2-18.8c1.2,6.2,4.5,11,9.8,14.5,4.3,2.6,9.8,3.8,16.7,3.8s11-.7,14-1.9"/>
  <path fill="#4E2680" d="M319.3,169.4v-96.6h-19.5v-26h19.5v-6c0-18.3,3.8-25.5,13.1-32.9,6.4-5.2,16.2-7.9,29.8-7.9s8.8.2,12.4,1v24.5c-2.1-.7-6-1.2-11-1.2-10.7,0-15.7,4.8-15.7,16.9v5.5h22.6v26h-22.6v96.6h-28.6,0Z"/>
  <path fill="#4E2680" d="M406.8,169.4v-96.6h-19.5v-26h19.5v-6c0-18.3,3.8-25.5,13.1-32.9,6.4-5.2,17.1-7.9,30.7-7.9s8.8.2,12.4,1v24.5c-2.1-.7-6-1.2-11-1.2-10.7,0-15.7,4.8-15.7,16.9v5.5h22.6v26h-22.6v96.6h-29.5Z"/>
  <path fill="#4E2680" d="M100.5,146h-36.7c-10.2,0-18.6-3.6-25.5-10.5-6.7-6.9-10-15.7-10-26.2s3.3-19.3,10-26.2c6.9-6.9,15.2-10.5,25.5-10.5s19.1,3.6,26,10.5c7.1,6.9,10.7,15.7,10.7,26.2v36.7h0ZM141.7,169.8v-23.1c-2.1.2-4.3.5-5.9.5-6.4,0-8.8-3.8-8.8-14.1V46.7h-28.6v20c-4.5-11.4-19.1-20-38.3-20s-31.2,6-42.9,18.1C5.7,76.7,0,91.5,0,109.3s5.7,32.6,17.1,44.8c11.7,12.1,26,18.1,42.9,18.1s32.9-6.2,41.2-18.8c1.2,6.2,4.5,11,9.8,14.5,4.3,2.6,9.8,3.8,16.7,3.8s11-.7,14-1.9"/>
  <path fill="#3AB5A7" d="M507.8,136.3c3.8,3.6,5.7,8.3,5.7,13.8h0s0,19.3,0,19.3h-19.6c-5.5,0-9.9-1.9-13.6-5.5-3.6-3.6-5.3-8.3-5.3-13.8s1.8-10.1,5.3-13.8c3.7-3.6,8.1-5.5,13.6-5.5s10.2,1.9,13.9,5.5"/>
<script xmlns=""/></svg>
